<svg width="512" height="512" viewBox="0 0 512 512" xmlns="http://www.w3.org/2000/svg" xmlns:svg="http://www.w3.org/2000/svg">
 <defs>
  <linearGradient id="go_ei78i364a_3377" x1="0%" y1="50%" x2="100%" y2="50%">
   <stop offset="0%" stop-opacity="0.5" stop-color="rgb(83, 187, 239)"/>
   <stop offset="100%" stop-color="rgb(100, 230, 255)"/>
  </linearGradient>
  <linearGradient id="go_ei78i364a_3382" x1="0%" y1="50%" x2="100%" y2="50%">
   <stop offset="0%" stop-opacity="0.5" stop-color="rgb(83, 187, 239)"/>
   <stop offset="100%" stop-color="rgb(230, 120, 255)"/>
  </linearGradient>
  <linearGradient id="go_ei78i364a_3387" x1="0%" y1="50%" x2="100%" y2="50%">
   <stop offset="0%" stop-opacity="0.5" stop-color="rgb(83, 187, 239)"/>
   <stop offset="100%" stop-color="rgb(100, 100, 255)"/>
  </linearGradient>
 </defs>
 <g class="layer">
  <title>Layer 2</title>
  <path fill="#ffffff" d="m40.28321,90.52041l143.59165,-82.96176l143.6427,82.87219l0.05172,165.83329l-143.59099,82.96243l-143.64337,-82.87285l-0.05172,-165.83329l0.00001,-0.00001z" id="svg_1"/>
  <path fill="#ffffff" d="m40.38664,256.39915l143.59165,-82.96176l143.6427,82.87219l0.05172,165.83329l-143.59099,82.96243l-143.64337,-82.87285l-0.05172,-165.83329l0.00001,-0.00001z" id="svg_2"/>
  <path fill="#ffffff" d="m183.95209,173.29294l143.59165,-82.96176l143.6427,82.87219l0.05172,165.83329l-143.59099,82.96243l-143.64337,-82.87285l-0.05172,-165.83329l0.00001,-0.00001z" id="svg_3"/>
 </g>
 <g class="layer">
  <title>Layer 1</title>
  <path fill="url(#go_ei78i364a_3377)" d="m40.01918,90.25639l143.59165,-82.96176l143.6427,82.87219l0.05172,165.83329l-143.59099,82.96243l-143.64337,-82.87285l-0.05172,-165.83329l0.00001,-0.00001z" id="svg_4" transform="rotate(-120 183.66220092773438,173.12860107421875) "/>
  <path fill="url(#go_ei78i364a_3387)" d="m40.12262,256.13513l143.59165,-82.96176l143.6427,82.87219l0.05172,165.83329l-143.59099,82.96243l-143.64337,-82.87285l-0.05172,-165.83329l0.00001,-0.00001z" id="svg_5" transform="rotate(120 183.765640258789,339.00732421875) "/>
  <path d="m183.68807,173.02892l143.59165,-82.96176l143.6427,82.87219l0.05172,165.83329l-143.59099,82.96243l-143.64337,-82.87285l-0.05172,-165.83329l0.00001,-0.00001z" fill="url(#go_ei78i364a_3382)" id="svg_6"/>
 </g>
</svg>